<svg xmlns="http://www.w3.org/2000/svg" version="1.1" xmlns:xlink="http://www.w3.org/1999/xlink" xmlns:svgjs="http://svgjs.dev/svgjs" width="1440" height="560" preserveAspectRatio="none" viewBox="0 0 1440 560"><g mask="url(&quot;#SvgjsMask1000&quot;)" fill="none"><rect width="1440" height="560" x="0" y="0" fill="#1e3266"></rect><path d="M1512 560L0 560 L0 354.73Q59.24 293.97, 120 353.2Q157.65 270.85, 240 308.5Q261.95 258.45, 312 280.4Q356.06 252.46, 384 296.52Q426.32 266.84, 456 309.16Q522.97 304.13, 528 371.11Q550.07 321.19, 600 343.26Q666.08 289.34, 720 355.42Q724.91 288.34, 792 293.25Q831.27 260.52, 864 299.79Q958.55 274.34, 984 368.89Q991.24 304.13, 1056 311.37Q1126.81 262.18, 1176 332.99Q1220.13 305.12, 1248 349.25Q1287.82 269.07, 1368 308.89Q1393.32 262.2, 1440 287.52Q1491.93 267.45, 1512 319.38z" fill="#182f5d"></path><path d="M1488 560L0 560 L0 442.14Q5.85 375.99, 72 381.83Q141.14 330.97, 192 400.1Q233.6 369.7, 264 411.29Q280.73 356.02, 336 372.75Q382.89 347.64, 408 394.54Q462.48 329.02, 528 383.5Q580.82 364.31, 600 417.13Q608.51 353.64, 672 362.16Q742 312.16, 792 382.16Q844.19 362.36, 864 414.55Q906.67 385.22, 936 427.88Q1002.9 374.78, 1056 441.68Q1078.1 343.78, 1176 365.88Q1247.51 317.39, 1296 388.91Q1358.15 379.06, 1368 441.21Q1417.88 371.09, 1488 420.97z" fill="#25467d"></path><path d="M1488 560L0 560 L0 510.68Q19.26 457.94, 72 477.19Q88.63 421.82, 144 438.46Q214.44 388.9, 264 459.34Q341.79 417.13, 384 494.92Q391.68 430.6, 456 438.28Q527.49 389.76, 576 461.25Q621.81 435.06, 648 480.86Q654.75 415.61, 720 422.36Q762.26 392.63, 792 434.89Q846.67 417.56, 864 472.24Q918.9 407.14, 984 462.04Q1066.81 424.85, 1104 507.66Q1153.08 436.74, 1224 485.81Q1237.85 427.66, 1296 441.51Q1325.33 398.84, 1368 428.17Q1462.18 402.35, 1488 496.53z" fill="#356cb1"></path><path d="M1464 560L0 560 L0 508.9Q30.86 467.76, 72 498.62Q131.41 486.03, 144 545.44Q191.3 520.74, 216 568.04Q257.78 489.82, 336 531.6Q357.6 481.2, 408 502.79Q490.54 465.33, 528 547.86Q598.14 498, 648 568.14Q651.51 499.65, 720 503.16Q780.85 492.01, 792 552.87Q866.69 507.56, 912 582.24Q946.34 496.58, 1032 530.92Q1082.78 461.69, 1152 512.47Q1202.12 442.59, 1272 492.71Q1330.37 479.08, 1344 537.44Q1398.13 471.57, 1464 525.7z" fill="white"></path></g><defs><mask id="SvgjsMask1000"><rect width="1440" height="560" fill="#ffffff"></rect></mask></defs></svg>